<svg xmlns="http://www.w3.org/2000/svg" width="48" height="47.996"><g fill="#1a171b"><path d="M47.915 46.925 41.45 34.8a.728.728 0 0 0-1.284.685l6.465 12.125a.727.727 0 0 0 .643.385.711.711 0 0 0 .341-.086.729.729 0 0 0 .3-.984zM8.347 32.985a.726.726 0 0 0-.983.3L.091 46.925a.728.728 0 0 0 .3.984.713.713 0 0 0 .341.091.727.727 0 0 0 .643-.385l7.273-13.648a.726.726 0 0 0-.301-.982zM34.692 33.4a.727.727 0 0 0-1.38.461L37.857 47.5a.729.729 0 0 0 .69.5.742.742 0 0 0 .23-.037.728.728 0 0 0 .46-.92zM12.512 38.106a.724.724 0 0 0-.92.459l-2.824 8.473a.728.728 0 0 0 .46.92.742.742 0 0 0 .23.037.729.729 0 0 0 .69-.5l2.823-8.473a.726.726 0 0 0-.459-.916zM24 8.946a4.473 4.473 0 1 0-4.47-4.473A4.478 4.478 0 0 0 24 8.946zm0-7.492a3.019 3.019 0 1 1-3.018 3.02A3.022 3.022 0 0 1 24 1.454zM46.892 22.292a.728.728 0 0 0 .752-1.246c-4.009-2.416-9.707-3.471-15.244-2.826a.728.728 0 0 0 .169 1.446c5.231-.616 10.583.37 14.323 2.626z"/><path d="M41.268 6.837a2.866 2.866 0 1 0-4.053-4.053l-7 7a3.675 3.675 0 0 1-2.615 1.084h-7.206a3.671 3.671 0 0 1-2.615-1.084l-7-7a2.866 2.866 0 0 0-4.052 4.053L16.972 17.13a2.942 2.942 0 0 1 .861 2.088v4.045C12.193 24.5 5.62 23.771 1.1 21.046a.728.728 0 0 0-.752 1.246 23.733 23.733 0 0 0 12.011 2.994 27.432 27.432 0 0 0 5.47-.553v19.844a3.446 3.446 0 0 0 6.892 0v-3.039a3.441 3.441 0 0 0 5.438-2.779V19.218a2.943 2.943 0 0 1 .862-2.088zM26.717 40.724a1.981 1.981 0 0 1-1.992-1.965v-6.4a.727.727 0 1 0-1.454 0v12.219a1.992 1.992 0 0 1-3.983 0v-15.7h9.42v9.882a1.98 1.98 0 0 1-1.991 1.964zm3.276-24.619a4.381 4.381 0 0 0-1.286 3.113v8.211h-9.42V24.39a19.8 19.8 0 0 0 5.086-2.1 16.726 16.726 0 0 1 1.99-1.02.727.727 0 1 0-.576-1.334 18.044 18.044 0 0 0-2.167 1.107 18.323 18.323 0 0 1-4.334 1.848v-3.674A4.385 4.385 0 0 0 18 16.1L7.754 5.809a1.411 1.411 0 1 1 2-2l7 7a5.12 5.12 0 0 0 3.644 1.508H27.6a5.119 5.119 0 0 0 3.643-1.508l7-7a1.411 1.411 0 1 1 1.995 2z"/></g></svg>